<svg width="33" height="32" viewBox="0 0 33 32" fill="none" xmlns="http://www.w3.org/2000/svg">
<path d="M14.145 2.70386L15.706 1.14292C16.3669 0.481982 17.4356 0.481982 18.0896 1.14292L31.7583 14.8046C32.4192 15.4656 32.4192 16.5343 31.7583 17.1882L18.0896 30.857C17.4286 31.5179 16.3599 31.5179 15.706 30.857L14.145 29.296C13.477 28.6281 13.4911 27.5382 14.1731 26.8843L22.6458 18.8125H2.43799C1.50283 18.8125 0.750488 18.0601 0.750488 17.125V14.875C0.750488 13.9398 1.50283 13.1875 2.43799 13.1875H22.6458L14.1731 5.11558C13.4841 4.46167 13.47 3.37183 14.145 2.70386Z" fill="#FF0000"/>
</svg>
